<?xml version="1.0" encoding="UTF-8" standalone="no"?>
<!DOCTYPE svg PUBLIC "-//W3C//DTD SVG 1.1//EN" "http://www.w3.org/Graphics/SVG/1.1/DTD/svg11.dtd">
<svg width="100%" height="100%" viewBox="0 0 1000 500" version="1.1" xmlns="http://www.w3.org/2000/svg" xmlns:xlink="http://www.w3.org/1999/xlink" xml:space="preserve" xmlns:serif="http://www.serif.com/" style="fill-rule:evenodd;clip-rule:evenodd;stroke-linejoin:round;stroke-miterlimit:2;">
    <g transform="matrix(8.37527e-17,1.36779,-1.36779,8.37527e-17,1152.51,-595.851)">
        <path d="M505.078,172.18L652.767,388.053L435.632,692.917L505.078,172.18Z" style="fill:url(#_Linear1);"/>
    </g>
    <g transform="matrix(8.37527e-17,1.36779,-1.36779,8.37527e-17,982.757,-658.94)">
        <path d="M576.184,-12.606L847.311,363.164L847.311,561.732L576.184,-12.606Z" style="fill:url(#_Linear2);"/>
    </g>
    <g transform="matrix(8.37527e-17,1.36779,-1.36779,8.37527e-17,905.477,-604.228)">
        <path d="M536.184,-69.106L807.311,505.232L470.991,-69.106L536.184,-69.106Z" style="fill:url(#_Linear3);"/>
    </g>
    <g transform="matrix(8.37527e-17,1.36779,-1.36779,8.37527e-17,997.945,-663.557)">
        <path d="M682.527,125.711L485.132,579.917L763.38,225.873L682.527,125.711Z" style="fill:url(#_Linear4);"/>
    </g>
    <g transform="matrix(8.37527e-17,1.36779,-1.36779,8.37527e-17,769.525,-658.086)">
        <path d="M696.804,-2.004L589.699,275.022L759.38,85.36L696.804,-2.004Z" style="fill:url(#_Linear5);"/>
    </g>
    <g transform="matrix(8.37527e-17,1.36779,-1.36779,8.37527e-17,882.367,-685.441)">
        <path d="M729,60.5L563,91.5L779.38,167.86L729,60.5Z" style="fill:url(#_Linear6);"/>
    </g>
    <g transform="matrix(8.37527e-17,1.36779,-1.36779,8.37527e-17,995.067,-664.411)">
        <path d="M851.311,-3.606L851.311,372.164L580.184,-3.606L851.311,-3.606Z" style="fill:url(#_Linear7);"/>
    </g>
    <defs>
        <linearGradient id="_Linear1" x1="0" y1="0" x2="1" y2="0" gradientUnits="userSpaceOnUse" gradientTransform="matrix(156,0,0,154,480,216)"><stop offset="0" style="stop-color:rgb(213,177,255);stop-opacity:1"/><stop offset="1" style="stop-color:rgb(60,120,146);stop-opacity:1"/></linearGradient>
        <linearGradient id="_Linear2" x1="0" y1="0" x2="1" y2="0" gradientUnits="userSpaceOnUse" gradientTransform="matrix(71,-18,14,55.2222,688,196)"><stop offset="0" style="stop-color:rgb(166,255,255);stop-opacity:1"/><stop offset="1" style="stop-color:rgb(250,232,150);stop-opacity:1"/></linearGradient>
        <linearGradient id="_Linear3" x1="0" y1="0" x2="1" y2="0" gradientUnits="userSpaceOnUse" gradientTransform="matrix(187,0,0,209,490,212.5)"><stop offset="0" style="stop-color:rgb(255,146,154);stop-opacity:1"/><stop offset="1" style="stop-color:rgb(160,69,85);stop-opacity:1"/></linearGradient>
        <linearGradient id="_Linear4" x1="0" y1="0" x2="1" y2="0" gradientUnits="userSpaceOnUse" gradientTransform="matrix(-301.217,386.453,-656.357,-511.591,798.778,186.383)"><stop offset="0" style="stop-color:rgb(255,255,122);stop-opacity:1"/><stop offset="1" style="stop-color:rgb(132,71,146);stop-opacity:1"/></linearGradient>
        <linearGradient id="_Linear5" x1="0" y1="0" x2="1" y2="0" gradientUnits="userSpaceOnUse" gradientTransform="matrix(68,-108,84,52.8889,664,193)"><stop offset="0" style="stop-color:rgb(255,162,255);stop-opacity:1"/><stop offset="1" style="stop-color:rgb(186,195,227);stop-opacity:1"/></linearGradient>
        <linearGradient id="_Linear6" x1="0" y1="0" x2="1" y2="0" gradientUnits="userSpaceOnUse" gradientTransform="matrix(90,0,0,70,579,242)"><stop offset="0" style="stop-color:rgb(255,162,255);stop-opacity:1"/><stop offset="1" style="stop-color:rgb(250,232,150);stop-opacity:1"/></linearGradient>
        <linearGradient id="_Linear7" x1="0" y1="0" x2="1" y2="0" gradientUnits="userSpaceOnUse" gradientTransform="matrix(-198.131,-47.5221,31.3607,-130.75,851.311,149.926)"><stop offset="0" style="stop-color:rgb(255,201,42);stop-opacity:1"/><stop offset="1" style="stop-color:rgb(228,136,109);stop-opacity:1"/></linearGradient>
    </defs>
</svg>
